<?xml version="1.0" encoding="UTF-8" standalone="no"?>
<svg
   width="16"
   height="16"
   version="1.1"
   id="svg1"
   sodipodi:docname="Label.svg"
   inkscape:version="1.3.2 (091e20e, 2023-11-25, custom)"
   xmlns:inkscape="http://www.inkscape.org/namespaces/inkscape"
   xmlns:sodipodi="http://sodipodi.sourceforge.net/DTD/sodipodi-0.dtd"
   xmlns="http://www.w3.org/2000/svg"
   xmlns:svg="http://www.w3.org/2000/svg">
  <defs
     id="defs1" />
  <sodipodi:namedview
     id="namedview1"
     pagecolor="#505050"
     bordercolor="#eeeeee"
     borderopacity="1"
     inkscape:showpageshadow="0"
     inkscape:pageopacity="0"
     inkscape:pagecheckerboard="0"
     inkscape:deskcolor="#505050"
     inkscape:zoom="44.125"
     inkscape:cx="6.8668555"
     inkscape:cy="9.2577904"
     inkscape:window-width="1920"
     inkscape:window-height="1001"
     inkscape:window-x="-9"
     inkscape:window-y="-9"
     inkscape:window-maximized="1"
     inkscape:current-layer="svg1" />
  <path
     id="path1"
     d="M 6 3 A 1 1 0 0 0 5.2929688 3.2929688 L 1.2929688 7.2929688 A 1 1 0 0 0 1.2929688 8.7070312 L 5.2929688 12.707031 A 1 1 0 0 0 6 13 L 14 13 A 1 1 0 0 0 15 12 L 15 4 A 1 1 0 0 0 14 3 L 6 3 z M 13.908203 3.8613281 C 14.04899 3.8629558 14.128255 3.9055994 14.144531 3.9902344 C 14.266059 4.5674893 14.319662 5.2365481 14.306641 5.9960938 C 14.302307 6.0742185 14.292757 6.1278213 14.275391 6.1582031 C 14.262371 6.1842444 14.218317 6.2037756 14.144531 6.2167969 C 13.983941 6.2515187 13.878255 6.1914057 13.826172 6.0351562 C 13.639541 5.4579014 13.418185 5.073784 13.162109 4.8828125 C 12.806208 4.6180565 12.182723 4.4863281 11.292969 4.4863281 C 10.932727 4.4863281 10.735894 4.5253909 10.701172 4.6035156 C 10.688152 4.6295569 10.681641 4.6651475 10.681641 4.7128906 L 10.681641 11.205078 C 10.681641 11.482855 10.746745 11.678169 10.876953 11.791016 C 11.007161 11.899522 11.264108 11.998698 11.650391 12.089844 C 11.81532 12.124564 11.909939 12.149089 11.931641 12.162109 C 11.992407 12.201169 12.01346 12.282333 11.996094 12.408203 C 11.983074 12.50803 11.935981 12.563586 11.853516 12.572266 C 11.844836 12.576599 11.755209 12.570088 11.585938 12.552734 C 10.440108 12.452908 9.4945721 12.447917 8.7480469 12.539062 C 8.5700961 12.560762 8.4544269 12.560762 8.4023438 12.539062 C 8.3589411 12.517363 8.33138 12.465278 8.3183594 12.382812 C 8.2836374 12.243924 8.3582907 12.151258 8.5449219 12.103516 C 8.9181845 12.00803 9.1705734 11.892361 9.3007812 11.757812 C 9.4483502 11.605903 9.5214844 11.360025 9.5214844 11.021484 L 9.5214844 4.7128906 C 9.5214844 4.587023 9.4433588 4.5138888 9.2871094 4.4921875 C 9.2697481 4.4878475 9.143011 4.4863281 8.9042969 4.4863281 C 8.079647 4.4863281 7.4707017 4.6295583 7.0800781 4.9160156 C 6.7849422 5.1286882 6.5230027 5.5193163 6.2929688 6.0878906 C 6.2191843 6.2658414 6.116536 6.3244355 5.9863281 6.2636719 C 5.8387592 6.2289498 5.7851564 6.147352 5.8242188 6.0214844 C 5.9761279 5.552736 6.0527344 4.8921411 6.0527344 4.0371094 C 6.0527344 3.9372833 6.1844627 3.8947483 6.4492188 3.9121094 C 7.3867154 3.9728733 8.4233981 4.0039062 9.5605469 4.0039062 C 11.713317 4.0039062 13.110028 3.9598521 13.748047 3.8730469 C 13.80881 3.8643664 13.861274 3.8607856 13.908203 3.8613281 z M 5 7 A 1 1 0 0 1 5 9 A 1 1 0 0 1 5 7 z "
     style="fill:#8eef97;fill-opacity:1;stroke:none" />
</svg>
